<svg width="18" height="18" viewBox="0 0 18 18" fill="none" xmlns="http://www.w3.org/2000/svg">
<title>Audio</title> <g> <path fill-rule="evenodd" clip-rule="evenodd" d="M2.75 9.46353V12V12.7639C2.75 13.2374 3.0175 13.6702 3.44098 13.882L4.8882 14.6056C5.05442 14.6887 5.25 14.5678 5.25 14.382V8.61803C5.25 8.43219 5.05442 8.31131 4.8882 8.39443L2.75 9.46353ZM1.25 12V9V8.53647V8C1.25 5.99555 1.82214 4.05187 3.11504 2.59939C4.42097 1.13225 6.38821 0.25 9 0.25C11.6118 0.25 13.579 1.13225 14.885 2.59939C16.1779 4.05187 16.75 5.99555 16.75 8V8.53647V9V12V12.7639C16.75 13.8056 16.1615 14.7578 15.2298 15.2236L13.7826 15.9472C12.619 16.529 11.25 15.6829 11.25 14.382V8.61803C11.25 7.31712 12.619 6.471 13.7826 7.05279L15.2474 7.7852C15.2081 6.13759 14.7141 4.66343 13.7645 3.59671C12.787 2.49847 11.2542 1.75 9 1.75C6.7458 1.75 5.21303 2.49847 4.23546 3.59671C3.28594 4.66343 2.7919 6.13759 2.75255 7.7852L4.21738 7.05279C5.38095 6.471 6.75 7.31712 6.75 8.61803V14.382C6.75 15.6829 5.38095 16.529 4.21738 15.9472L2.77016 15.2236C1.83851 14.7578 1.25 13.8056 1.25 12.7639V12ZM13.1118 8.39443L15.25 9.46353V12V12.7639C15.25 13.2374 14.9825 13.6702 14.559 13.882L13.1118 14.6056C12.9456 14.6887 12.75 14.5678 12.75 14.382V8.61803C12.75 8.43219 12.9456 8.31131 13.1118 8.39443Z" fill="#252525"/>
</g>
</svg>
