<svg xmlns="http://www.w3.org/2000/svg" width="18" height="18" viewBox="0 0 18 18" class="svg-symbol z-icon-stroke" preserveAspectRatio="xMinYMin meet" role="img" aria-label="Icon">
	<title>E-Paper</title>
	<path fill-rule="evenodd" d="M3.611 12.906 6.134 15.5H14.5v-13h-11v10.31zm1.594 3.791a1 1 0 0 0 .717.303H15a1 1 0 0 0 1-1V2a1 1 0 0 0-1-1H3a1 1 0 0 0-1 1v11.04a1 1 0 0 0 .35.76l.233.2z" clip-rule="evenodd"></path><path fill-rule="evenodd" d="M7 16H5.4v-2.737H3V12h4z" clip-rule="evenodd"></path><g><path d="M5 4h8v5H5z"></path><path fill-rule="evenodd" d="M13 11H5v-1h8zM13 13H8v-1h5z" clip-rule="evenodd"></path></g>
</svg>
