<svg width="18" height="18" viewBox="0 0 18 18" fill="none" xmlns="http://www.w3.org/2000/svg">
	<title>Spiele</title>
	<path fill-rule="evenodd" clip-rule="evenodd" d="M2.5 2.5V15.5H15.5V2.5H2.5ZM2.45455 1C1.65122 1 1 1.65122 1 2.45455V15.5455C1 16.3488 1.65122 17 2.45455 17H15.5455C16.3488 17 17 16.3488 17 15.5455V2.45455C17 1.65122 16.3488 1 15.5455 1H2.45455Z" fill="#444444"/>
	<path fill-rule="evenodd" clip-rule="evenodd" d="M7.06059 16.251H6.06059V12.0278H1.5188V10.9369H6.06059V7.0581H1.5188V6.0581H6.06059V1.70557H7.06059V6.0581H11.0303V1.70557H12.0303V6.05811H16.0643V7.05811H12.0303V10.9369H16.0643V12.0278H12.0303V16.251H11.0303V12.0278H7.06059V16.251ZM11.0303 10.9369V7.0581H7.06059V10.9369H11.0303Z" fill="#444444"/>
	<rect x="2.06189" y="2.0874" width="4.36364" height="4.36364" fill="#444444"/>
	<rect x="7.06042" y="6.6073" width="4.36364" height="4.36364" fill="#444444"/>
	<rect x="11.7006" y="11.8875" width="4.36364" height="4.36364" fill="#444444"/>
</svg>
