<svg width="18" height="18" viewBox="0 0 18 18" fill="none" xmlns="http://www.w3.org/2000/svg">
    <title>Verschenken</title>
    <path d="M2 4.75H16C16.1381 4.75 16.25 4.86193 16.25 5V8.5C16.25 8.63807 16.1381 8.75 16 8.75H2C1.86193 8.75 1.75 8.63807 1.75 8.5V5C1.75 4.86193 1.86193 4.75 2 4.75Z" stroke="#444444" stroke-width="1.5"/>
    <path d="M3 8.75H15C15.1381 8.75 15.25 8.86193 15.25 9V15C15.25 15.1381 15.1381 15.25 15 15.25H3C2.86193 15.25 2.75 15.1381 2.75 15V9C2.75 8.86193 2.86193 8.75 3 8.75Z" stroke="#444444" stroke-width="1.5"/>
    <path d="M9.75 3C9.75 1.75736 10.7574 0.75 12 0.75H12.5C13.4665 0.75 14.25 1.5335 14.25 2.5C14.25 3.4665 13.4665 4.25 12.5 4.25H9.75V3Z" stroke="#444444" stroke-width="1.5"/>
    <path d="M8.25 3C8.25 1.75736 7.24264 0.75 6 0.75H5.5C4.5335 0.75 3.75 1.5335 3.75 2.5C3.75 3.4665 4.5335 4.25 5.5 4.25H8.25V3Z" stroke="#444444" stroke-width="1.5"/>
</svg>
