<svg width="18" height="18" viewBox="0 0 18 18" fill="none" xmlns="http://www.w3.org/2000/svg">
    <title>Zur Wiedergabeliste hinzufügen</title>
    <path d="M11 3.07892H17V4.49997H11V3.07892ZM11 6.86839H17V8.28944H11V6.86839ZM3 12.0789V10.6579H17V12.0789H3ZM3 15.8684V14.4473H17V15.8684H3Z" fill="#444444"/>
    <path d="M6.0235 3.19433L5.24947 3.73431C5.12393 3.82186 4.96635 3.67308 5.05929 3.55415L5.62927 2.82085V0H3.37179V2.82034L3.94177 3.55364C4.03419 3.67257 3.87714 3.82186 3.7516 3.73381L2.97756 3.19383H0V5.33249H2.97703L3.75107 4.79251C3.8766 4.70496 4.03419 4.85374 3.94124 4.97267L3.37126 5.70597V8.52632H5.62874V5.70597L5.05876 4.97267C4.96635 4.85374 5.1234 4.70445 5.24893 4.79251L6.02297 5.33249H9V3.19383H6.02297L6.0235 3.19433Z" fill="#444444"/>
</svg>
