<svg xmlns="http://www.w3.org/2000/svg" width="29" height="8" viewBox="0 0 29 8">
  <path d="M18.74 4.079h-1.302V1.75h1.319c.213 0 .348.004.405.012.285.05.464.19.54.42.052.163.078.414.078.753 0 .276-.013.484-.04.623-.04.21-.123.35-.247.42-.09.052-.341.085-.754.1ZM15.35 0v8h2.087V5.934h1.245l.347-.011c.685-.012 1.073-.026 1.164-.042.776-.104 1.29-.509 1.539-1.21.124-.356.187-.94.187-1.75 0-.675-.056-1.18-.17-1.517-.22-.64-.65-1.063-1.289-1.27C20.18.045 19.773 0 19.24 0h-3.89ZM4.864 2.552h1.942c.013-.177.02-.309.02-.397 0-1.078-.423-1.734-1.269-1.968C5.212.09 4.631.043 3.816.043c-.518 0-.989.019-1.413.057-.51.043-.93.184-1.257.425-.223.157-.385.387-.486.69-.1.302-.15.704-.15 1.206 0 .659.092 1.151.278 1.476.212.383.636.636 1.272.758.241.043.672.087 1.293.133.773.053 1.206.096 1.3.126.248.077.373.291.373.643 0 .158-.015.286-.044.385a.577.577 0 0 1-.352.35c-.1.04-.333.058-.697.058h-.714a1.11 1.11 0 0 1-.486-.108c-.193-.1-.29-.323-.29-.67v-.167H.5c0 .65.046 1.116.14 1.395.167.502.514.835 1.039 1 .428.133 1.186.2 2.274.2.652 0 1.136-.03 1.453-.092.756-.146 1.242-.492 1.458-1.04.12-.3.179-.771.179-1.415 0-.28-.013-.531-.04-.753-.044-.372-.184-.673-.419-.903-.299-.295-.78-.477-1.444-.546-.209-.023-.733-.063-1.573-.12l-.392-.03a.888.888 0 0 1-.414-.114c-.146-.092-.218-.284-.218-.575 0-.322.082-.531.246-.627.164-.096.5-.144 1.007-.144.522 0 .841.083.957.25.075.112.112.332.112.661ZM25.962 5.06l-.979-3.468-.949 3.468h1.928Zm.415 1.558h-2.792L23.21 8h-2.16l2.33-8h3.15l2.36 8h-2.115l-.398-1.383ZM14.603 2.175a2.714 2.714 0 0 0-2.135-1.05c-1.018 0-1.905.572-2.383 1.421H14.4l-.518 1.146H9.726a3.037 3.037 0 0 0 .016.71h3.819l-.518 1.146h-2.877c.492.775 1.34 1.287 2.302 1.287a2.71 2.71 0 0 0 2.066-.968v1.405a3.872 3.872 0 0 1-2.2.682c-1.62 0-3.01-.992-3.603-2.406H7.357l.518-1.146h.567a3.975 3.975 0 0 1-.005-.71h-1.13l.52-1.146h.877a3.912 3.912 0 0 1 3.63-2.475c1.057 0 2.015.423 2.719 1.11l-.45.994Z"/>
</svg>
