<svg xmlns="http://www.w3.org/2000/svg" width="24" height="14" viewBox="0 0 24 14">
  <path d="M12.117 1.5a6.77 6.77 0 0 0-.272.218C10.332 3.002 9.375 4.891 9.375 7s.957 3.998 2.47 5.281c.089.075.18.148.272.22.092-.072.183-.145.272-.22C13.9 10.997 14.859 9.11 14.859 7c0-2.11-.958-3.998-2.47-5.282a7.387 7.387 0 0 0-.272-.219ZM16.553 0c-1.469 0-2.836.43-3.973 1.17.057.046.116.092.172.14 1.692 1.434 2.662 3.509 2.662 5.69 0 2.18-.97 4.255-2.66 5.69l-.174.14A7.273 7.273 0 0 0 16.553 14c3.966 0 7.18-3.135 7.18-7 0-3.866-3.214-7-7.18-7ZM11.48 12.69c.056.047.116.093.174.14A7.277 7.277 0 0 1 7.68 14C3.714 14 .5 10.865.5 7c0-3.866 3.214-7 7.18-7 1.47 0 2.836.43 3.974 1.17-.058.046-.118.092-.174.14C9.79 2.743 8.82 4.818 8.82 7c0 2.181.97 4.255 2.66 5.69Z"/>
</svg>
