<svg xmlns="http://www.w3.org/2000/svg" width="31" height="10" viewBox="0 0 31 10">
  <path clip-rule="evenodd" fill-rule="evenodd" d="M20.022.5c.925 0 1.665.19 2.137.367l-.323 1.889-.214-.1a4.4 4.4 0 0 0-1.785-.335c-.933 0-1.365.389-1.365.75-.005.408.505.678 1.339 1.082 1.375.621 2.01 1.376 2.002 2.368-.018 1.81-1.646 2.979-4.153 2.979-1.07-.01-2.099-.222-2.656-.465l.334-1.952.308.139c.783.325 1.29.457 2.245.457.685 0 1.42-.267 1.426-.852.005-.381-.308-.654-1.236-1.08-.904-.418-2.102-1.116-2.09-2.37C16.007 1.683 17.667.5 20.023.5Zm-7.404.152-1.491 8.719h2.384L15.002.652h-2.384Zm15.657.01h-1.843c-.571 0-.998.154-1.25.722l-3.54 7.99h2.504s.41-1.074.502-1.31l1.304.001H26.058l1.644.002c.071.305.29 1.306.29 1.306h2.213L28.275.661Zm-1.99 3.18s-.754 1.935-.951 2.437h1.98l-.553-2.517-.16-.752-.214.56-.003.006c-.062.16-.107.277-.1.266ZM9.125.658 6.792 6.603l-.249-1.208-.001-.005-.835-4C5.563.838 5.144.673 4.627.654H.78L.75.835c.936.226 1.773.552 2.506.958l2.119 7.57 2.523-.003L11.652.658H9.126Z"/>
</svg>
