<svg width="24" height="24" viewBox="0 0 24 24" xmlns="http://www.w3.org/2000/svg">
    <title>Alexa Skill</title>
    <path d="M11.9939 0C5.36993 0 0 5.3726 0 12C0 18.0849 4.5269 23.1113 10.3949 23.8936V21.4755C10.3949 20.7938 9.965 20.181 9.31907 19.9641C5.93335 18.8262 3.51131 15.5885 3.60052 11.7976C3.70909 7.18246 7.46667 3.55383 12.0805 3.60044C16.6775 3.64694 20.3898 7.38972 20.3898 12C20.3898 12.1051 20.3872 12.2097 20.3833 12.3137C20.3824 12.337 20.3817 12.3605 20.3808 12.3838C20.3764 12.4805 20.3704 12.5769 20.3629 12.6727C20.3606 12.7033 20.3575 12.7337 20.3547 12.7641C20.3488 12.8311 20.342 12.8975 20.3344 12.9639C20.3259 13.0393 20.3161 13.1142 20.3056 13.1888C20.3009 13.2228 20.2964 13.257 20.2912 13.2908C19.2633 20.0656 10.4432 23.8728 10.3949 23.8936C10.9178 23.9631 11.4521 24 11.9939 24C18.618 24 23.988 18.6275 23.988 12.0001C23.988 5.37262 18.6181 0 11.9939 0Z"/>
</svg>
