<svg width="24" height="24" viewBox="0 0 24 24" xmlns="http://www.w3.org/2000/svg">
  <path d="M11.4567 8.37334V11.4133H6.26667V8.37334H11.4567ZM11.4567 12.5867V15.6267H6.26667V12.5867H11.4567ZM17.7333 12.5867V15.6267H12.5433V12.5867H17.7333ZM24 16.8V19.84H18.81V16.8H24ZM17.7333 16.8V19.84H12.5433V16.8H17.7333ZM11.4567 16.8V19.84H6.26667V16.8H11.4567ZM5.19 16.8V19.84H0V16.8H5.19ZM24 12.5867V15.6267H18.81V12.5867H24ZM24 8.37334V11.4133H18.81V8.37334H24ZM24 4.16V7.2H18.81V4.16H24Z" fill="#444444"/>
</svg>
