<svg width="24" height="24" viewBox="0 0 24 24" xmlns="http://www.w3.org/2000/svg">
    <title>Spotify</title>
    <path d="M19.0967 10.6367C15.23 8.34 8.84667 8.12667 5.15667 9.25C4.56333 9.43 3.93667 9.09667 3.75667 8.50333C3.57667 7.91 3.91 7.28333 4.50333 7.10333C8.74333 5.81667 15.79 6.06667 20.24 8.71C20.7733 9.02667 20.95 9.71667 20.6333 10.2467C20.3167 10.78 19.6267 10.9567 19.0967 10.64V10.6367ZM18.97 14.04C18.7 14.48 18.1233 14.62 17.6833 14.35C14.4567 12.3667 9.54 11.7933 5.72667 12.95C5.23333 13.1 4.71 12.82 4.56 12.3267C4.41 11.8333 4.69 11.31 5.18333 11.16C9.54 9.83667 14.96 10.4767 18.6633 12.7533C19.1033 13.0233 19.2433 13.6 18.97 14.04ZM17.5 17.3067C17.2867 17.66 16.8233 17.77 16.47 17.5533C13.6533 15.8333 10.1067 15.4433 5.93 16.3967C5.52667 16.49 5.12667 16.2367 5.03333 15.8333C4.94 15.43 5.19333 15.03 5.59667 14.9367C10.1667 13.8933 14.09 14.3433 17.2533 16.2767C17.6067 16.4933 17.7167 16.9533 17.5 17.3067ZM12 0C5.37333 0 0 5.37333 0 12C0 18.6267 5.37333 24 12 24C18.6267 24 24 18.6267 24 12C24 5.37333 18.6267 0 12 0Z" fill="#444444"/>
</svg>
