<svg width="18" height="18" viewBox="0 0 18 18" fill="none" xmlns="http://www.w3.org/2000/svg">
    <title>Podcast abonnieren</title>
    <circle cx="9" cy="9" r="1" stroke="#444444" stroke-width="1.5"/>
    <path d="M9 8V16" stroke="#444444" stroke-width="1.5"/>
    <path d="M13.9497 13.9497C14.9287 12.9707 15.5954 11.7235 15.8655 10.3656C16.1356 9.00772 15.997 7.60026 15.4672 6.32117C14.9373 5.04209 14.0401 3.94884 12.889 3.17967C11.7378 2.4105 10.3845 1.99996 9 1.99996C7.61553 1.99996 6.26215 2.4105 5.11101 3.17967C3.95986 3.94884 3.06266 5.04209 2.53284 6.32117C2.00303 7.60026 1.86441 9.00772 2.1345 10.3656C2.4046 11.7235 3.07129 12.9707 4.05025 13.9497" stroke="#444444" stroke-width="1.5"/>
    <path d="M11.8284 11.8284C12.3878 11.269 12.7688 10.5563 12.9231 9.78036C13.0775 9.00443 12.9983 8.20016 12.6955 7.46926C12.3928 6.73836 11.8801 6.11364 11.2223 5.67412C10.5645 5.23459 9.79113 4.99999 9 4.99999C8.20887 4.99999 7.43552 5.23459 6.77772 5.67412C6.11992 6.11364 5.60723 6.73836 5.30448 7.46926C5.00173 8.20016 4.92252 9.00443 5.07686 9.78035C5.2312 10.5563 5.61216 11.269 6.17157 11.8284" stroke="#444444" stroke-width="1.5"/>
</svg>
