<svg width="24" height="24" viewBox="0 0 24 24" xmlns="http://www.w3.org/2000/svg">
    <title>Apple Podcasts</title>
    <path d="M10.9033 12.28C9.98328 11.85 9.48661 11.0433 9.47661 9.99C9.47661 9.04333 10.0033 8.21667 10.9166 7.73333C11.4966 7.43 12.5199 7.43 13.0999 7.73333C13.7299 8.06 14.2499 8.69667 14.4466 9.36333C15.0466 11.4033 12.8833 13.1933 10.9266 12.28H10.9066H10.9033ZM7.31328 16.5067C6.23661 15.6467 5.28328 14.1233 4.89328 12.63C4.65661 11.7267 4.65661 10.01 4.90328 9.11C5.55661 6.68 7.34661 4.79667 9.82994 3.91C10.6799 3.61 12.5633 3.54333 13.6066 3.77333C17.2066 4.57667 19.7633 8.18333 19.2666 11.76C19.0699 13.2033 18.5733 14.3867 17.6933 15.4867C17.2599 16.0433 16.2033 16.9767 16.0166 16.9767C15.9866 16.9767 15.9533 16.6233 15.9533 16.1967V15.4133L16.4899 14.77C18.5199 12.34 18.3733 8.94333 16.1599 6.71667C15.2999 5.85 14.3066 5.34 13.0233 5.10333C12.1966 4.95 12.0199 4.95 11.1499 5.09333C9.82994 5.31 8.80661 5.82 7.89995 6.72C5.67328 8.92333 5.52994 12.3367 7.55995 14.77L8.09328 15.4133V16.2C8.09328 16.6333 8.05994 16.9867 8.01661 16.9867C7.97328 16.9867 7.67661 16.78 7.35328 16.52L7.30995 16.5067H7.31328ZM7.27328 20.7167C4.07661 19.1433 2.02661 16.48 1.27995 12.94C1.09328 12.0267 1.06328 9.84667 1.23995 9.00667C1.70661 6.75667 2.59661 4.99333 4.07661 3.43667C6.20328 1.18667 8.94661 0 11.9999 0C15.0533 0 17.7533 1.16667 19.8333 3.34667C21.4166 4.99333 22.3066 6.73333 22.7633 9.03C22.9199 9.79333 22.9199 11.8767 22.7733 12.7367C22.2966 15.4533 20.7866 17.9267 18.5833 19.59C17.7966 20.1833 15.8733 21.22 15.5599 21.22C15.4466 21.22 15.4366 21.1033 15.4866 20.6233C15.5799 19.8567 15.6733 19.6967 16.1066 19.5167C16.7999 19.2267 17.9799 18.3867 18.7033 17.66C19.9566 16.4167 20.8766 14.7933 21.2999 13.0833C21.5699 12.0167 21.5366 9.64667 21.2366 8.55C20.2933 5.06333 17.4499 2.35 13.9599 1.62667C12.9466 1.42 11.1033 1.42 10.0799 1.62667C6.55661 2.35 3.63661 5.19667 2.74661 8.78C2.50995 9.75333 2.50995 12.1233 2.74661 13.0967C3.33661 15.4667 4.86661 17.64 6.87661 18.9333C7.26994 19.1933 7.74661 19.46 7.94328 19.5433C8.37661 19.73 8.46994 19.8833 8.55328 20.65C8.60661 21.1167 8.59328 21.25 8.47995 21.25C8.40661 21.25 7.87994 21.0233 7.31994 20.7533L7.26661 20.7167H7.27328ZM11.2299 23.8633C10.3033 23.5333 10.1066 23.0833 9.72661 20.4433C9.28328 17.3767 9.18995 15.4767 9.44328 14.8767C9.78328 14.08 10.7033 13.6267 11.9933 13.6233C13.2699 13.6167 14.1999 14.0733 14.5433 14.8767C14.7999 15.4767 14.7033 17.3767 14.2633 20.4433C13.9633 22.5867 13.7966 23.1267 13.3833 23.4933C12.8133 23.9967 12.0066 24.1367 11.2399 23.8667H11.2333L11.2299 23.8633Z" fill="#444444"/>
</svg>
