<svg width="24" height="24" viewBox="0 0 24 24" xmlns="http://www.w3.org/2000/svg">
    <title>Google Podcasts</title>
    <path d="M12 6.12667C11.1733 6.12667 10.5 6.80667 10.5 7.62667V16.3533C10.5 18.3533 13.5 18.3533 13.5 16.3533V7.64C13.5 6.81 12.8267 6.14 12 6.14V6.12667ZM17.32 10.8933C16.4867 10.8933 15.82 11.5733 15.82 12.3933V17.7233C15.82 19.7233 18.82 19.7233 18.82 17.7233V12.3933C18.82 11.5667 18.1467 10.8933 17.32 10.8933ZM12 19.3533C11.1733 19.3533 10.5 20.0267 10.5 20.8533V22.4933C10.4933 24.4933 13.4933 24.5033 13.5 22.5067V20.8667C13.5 20.0467 12.8267 19.3667 12 19.3667V19.3533ZM12 0C11.1733 0 10.5 0.673333 10.5 1.5V3.13C10.5 5.13 13.5 5.13 13.5 3.13V1.5C13.5 0.673333 12.8267 0 12 0ZM17.32 4.76667C16.4867 4.76667 15.82 5.44 15.82 6.26667V7.90667C15.82 9.90667 18.82 9.90667 18.82 7.90667V6.26667C18.82 5.44 18.1467 4.76667 17.32 4.76667ZM6.68 4.76667C5.85333 4.76667 5.18 5.44 5.18 6.26667V11.6233C5.18 13.6233 8.18 13.6233 8.18 11.6233V6.26C8.18 5.43 7.51333 4.76 6.68 4.76V4.76667ZM6.68 14.5833C5.85333 14.5833 5.18 15.2567 5.18 16.0833V17.7133C5.18 19.7133 8.18 19.7133 8.18 17.7133V16.0967C8.18 15.2667 7.51333 14.5967 6.68 14.5967V14.5833ZM22.5 9.67333C21.6733 9.67333 21 10.3467 21 11.1733V12.8033C21 14.8033 24 14.8033 24 12.8033V11.1733C24 10.3467 23.3267 9.67333 22.5 9.67333ZM1.5 9.67333C0.673333 9.67667 0 10.35 0 11.1767V12.8067C0 14.8033 3 14.8033 3 12.8033V11.1733C3 10.3467 2.32667 9.67333 1.5 9.67333Z" fill="#444444"/>
</svg>
