<svg width="18" height="18" viewBox="0 0 18 18" fill="none" xmlns="http://www.w3.org/2000/svg">
    <title>Drucken</title>
    <path d="M12.5 14H15C15.5523 14 16 13.5523 16 13V6C16 5.44772 15.5523 5 15 5H3C2.44772 5 2 5.44772 2 6V13C2 13.5523 2.44772 14 3 14H5.5" stroke="#444444" stroke-width="1.5"/>
    <path d="M12 1.75C12.6904 1.75 13.25 2.30964 13.25 3L13.25 4.75L4.75 4.75L4.75 3C4.75 2.30964 5.30964 1.75 6 1.75L12 1.75Z" stroke="#444444" stroke-width="1.5"/>
    <path d="M12 16.25C12.6904 16.25 13.25 15.6904 13.25 15L13.25 10.75L4.75 10.75L4.75 15C4.75 15.6904 5.30964 16.25 6 16.25L12 16.25Z" stroke="#444444" stroke-width="1.5"/>
    <circle cx="5" cy="8" r="0.25" stroke="#444444" stroke-width="1.5" />
</svg>
