<svg width="18" height="18" viewBox="0 0 18 18" fill="none" xmlns="http://www.w3.org/2000/svg">
	<title>Wochenmarkt</title>
	<g> <path fill-rule="evenodd" clip-rule="evenodd" d="M1.25 10V6.5H2.75V10C2.75 12.8995 5.10051 15.25 8 15.25H10C12.8995 15.25 15.25 12.8995 15.25 10V6.5H16.75V10C16.75 13.7279 13.7279 16.75 10 16.75H8C4.27208 16.75 1.25 13.7279 1.25 10Z" fill="#252525"/>
	<path fill-rule="evenodd" clip-rule="evenodd" d="M3.03396 6.09993C2.76993 6.32287 2.75 6.4612 2.75 6.5C2.75 6.5388 2.76993 6.67713 3.03396 6.90007C3.29451 7.12008 3.71602 7.352 4.3025 7.56146C5.46895 7.97805 7.1297 8.25 9 8.25C10.8703 8.25 12.531 7.97805 13.6975 7.56146C14.284 7.352 14.7055 7.12008 14.966 6.90007C15.2301 6.67713 15.25 6.5388 15.25 6.5C15.25 6.4612 15.2301 6.32287 14.966 6.09993C14.7055 5.87992 14.284 5.648 13.6975 5.43854C12.531 5.02195 10.8703 4.75 9 4.75C7.1297 4.75 5.46895 5.02195 4.3025 5.43854C3.71602 5.648 3.29451 5.87992 3.03396 6.09993ZM3.798 4.02593C5.16505 3.53769 7.00431 3.25 9 3.25C10.9957 3.25 12.8349 3.53769 14.202 4.02593C14.8823 4.26888 15.4859 4.57566 15.9338 4.95385C16.3782 5.32909 16.75 5.84844 16.75 6.5C16.75 7.15156 16.3782 7.67091 15.9338 8.04615C15.4859 8.42434 14.8823 8.73112 14.202 8.97407C12.8349 9.46231 10.9957 9.75 9 9.75C7.00431 9.75 5.16505 9.46231 3.798 8.97407C3.11774 8.73112 2.51411 8.42434 2.06623 8.04615C1.62183 7.67091 1.25 7.15156 1.25 6.5C1.25 5.84844 1.62183 5.32909 2.06623 4.95385C2.51411 4.57566 3.11774 4.26888 3.798 4.02593Z" fill="#252525"/>
	<path fill-rule="evenodd" clip-rule="evenodd" d="M14.555 2.50451C14.8336 2.19802 14.8111 1.72368 14.5046 1.44505C14.1981 1.16642 13.7237 1.18901 13.4451 1.4955L8.4451 6.9955C8.44374 6.997 8.44239 6.9985 8.44104 7.00001H10.4682L14.555 2.50451Z" fill="#252525"/>
	</g>
</svg>
