<svg width="24" height="24" viewBox="0 0 24 24" xmlns="http://www.w3.org/2000/svg">
    <title>Pocket</title>
    <path d="M12.0167 11.958C11.9559 11.9015 11.9098 11.8599 11.865 11.817C10.4124 10.4216 8.96157 9.02455 7.50695 7.63143C6.84058 6.99337 5.81796 7.01681 5.18309 7.67643C4.55778 8.32611 4.56641 9.35511 5.22396 9.99054C7.10889 11.8115 8.99926 13.6271 10.8928 15.4393C11.5237 16.043 12.4952 16.0368 13.1351 15.4408C13.3914 15.2021 13.6414 14.9566 13.8939 14.7138C15.513 13.1578 17.1311 11.6006 18.7518 10.0464C19.1413 9.67292 19.3453 9.2218 19.2941 8.68461C19.229 8.00155 18.8688 7.50993 18.2221 7.27443C17.5775 7.03968 16.9912 7.18143 16.4938 7.65656C15.6797 8.43411 14.8693 9.21599 14.0574 9.99617C13.3819 10.6455 12.7059 11.2953 12.0167 11.958ZM12.0126 1.00053C15.2747 1.00053 18.5368 0.999589 21.7989 1.00109C22.8097 1.00165 23.6786 1.65377 23.9304 2.60139C23.9701 2.75102 23.9951 2.90945 23.9952 3.06395C23.9967 5.61282 24.0093 8.16186 23.9862 10.7105C23.9628 13.3145 23.1751 15.6721 21.5722 17.7307C19.7885 20.0217 17.4881 21.5305 14.6529 22.1859C8.14295 23.6902 1.92417 19.4885 0.389114 13.6078C0.184552 12.8238 0.0450529 12.0283 0.0383029 11.2187C0.015803 8.50724 -0.00107188 5.79581 5.3118e-05 3.08458C0.000615615 1.94327 1.01874 1.00203 2.20748 1.00109C5.47578 0.999027 8.74426 1.00053 12.0126 1.00053Z" fill="#444444"/>
</svg>
