<svg width="24" height="24" viewBox="0 0 24 24" xmlns="http://www.w3.org/2000/svg">
    <title>Facebook Messenger</title>
    <path d="M12.0018 0C5.2423 0 0 4.95174 0 11.6414C0 15.1403 1.43448 18.1628 3.76828 20.2502C3.9623 20.4258 4.08092 20.6686 4.09012 20.9334L4.15632 23.0695C4.16107 23.2265 4.20438 23.38 4.28242 23.5164C4.36045 23.6528 4.47083 23.7679 4.60383 23.8515C4.73683 23.9352 4.88836 23.9849 5.04508 23.9962C5.2018 24.0075 5.3589 23.9801 5.50253 23.9164L7.88506 22.8663C8.08828 22.778 8.31356 22.7605 8.52506 22.8175C9.61931 23.1182 10.7844 23.281 11.9982 23.281C18.7577 23.281 24 18.3302 24 11.6405C24 4.95174 18.7586 0 12.0018 0ZM18.3034 9.09428L15.2984 13.8603C15.1853 14.0397 15.0363 14.1937 14.8607 14.3127C14.6852 14.4316 14.4869 14.5129 14.2783 14.5514C14.0698 14.59 13.8555 14.5849 13.649 14.5365C13.4426 14.4881 13.2483 14.3975 13.0786 14.2704L10.6878 12.4791C10.5813 12.3996 10.452 12.3566 10.3191 12.3566C10.1862 12.3566 10.0568 12.3996 9.95035 12.4791L6.7246 14.9279C6.29701 15.2543 5.73149 14.7384 6.01839 14.2842L9.02345 9.51819C9.13654 9.33879 9.28556 9.18476 9.46112 9.0658C9.63668 8.94684 9.83498 8.86554 10.0435 8.82701C10.2521 8.78848 10.4663 8.79356 10.6728 8.84193C10.8793 8.89031 11.0735 8.98092 11.2432 9.10807L13.634 10.8993C13.7405 10.9789 13.8698 11.0219 14.0028 11.0219C14.1357 11.0219 14.265 10.9789 14.3715 10.8993L17.5972 8.4506C18.0294 8.11956 18.5949 8.63543 18.3034 9.09428Z" fill="#444444" />
</svg>
