<svg width="24" height="24" viewBox="0 0 24 24" xmlns="http://www.w3.org/2000/svg">
    <title>Instagram</title>
    <path d="M23.9267 7.05333C23.87 5.77667 23.6667 4.90333 23.37 4.14C23.0633 3.35 22.6533 2.68333 21.9867 2.01333C21.32 1.34667 20.65 0.936667 19.86 0.63C19.0967 0.333333 18.2233 0.13 16.9467 0.0733333C15.6667 0.0133333 15.2567 0 12 0C8.74333 0 8.33333 0.0133333 7.05333 0.0733333C5.77667 0.13 4.90333 0.333333 4.14 0.63C3.35 0.936667 2.68 1.34667 2.01333 2.01333C1.34667 2.68 0.936667 3.35 0.63 4.14C0.333333 4.90333 0.13 5.77667 0.0733333 7.05333C0.0133333 8.33333 0 8.74333 0 12C0 15.2567 0.0133333 15.6667 0.0733333 16.9467C0.13 18.2233 0.333333 19.0967 0.63 19.86C0.936667 20.65 1.34667 21.3167 2.01333 21.9867C2.68 22.6533 3.35 23.0633 4.14 23.37C4.90333 23.6667 5.77667 23.87 7.05333 23.9267C8.33333 23.9867 8.74333 24 12 24C15.2567 24 15.6667 23.9867 16.9467 23.9267C18.2233 23.87 19.0967 23.6667 19.86 23.37C20.65 23.0633 21.3167 22.6533 21.9867 21.9867C22.6533 21.32 23.0633 20.65 23.37 19.86C23.6667 19.0967 23.87 18.2233 23.9267 16.9467C23.9867 15.6667 24 15.2567 24 12C24 8.74333 23.9867 8.33333 23.9267 7.05333ZM21.7667 16.85C21.7133 18.02 21.5167 18.6567 21.3533 19.0767C21.1367 19.6367 20.8767 20.0367 20.4567 20.4567C20.0367 20.8767 19.6367 21.1367 19.0767 21.3533C18.6533 21.5167 18.02 21.7133 16.85 21.7667C15.5833 21.8233 15.2067 21.8367 12 21.8367C8.79333 21.8367 8.41667 21.8233 7.15 21.7667C5.98 21.7133 5.34333 21.5167 4.92333 21.3533C4.36333 21.1367 3.96333 20.8767 3.54333 20.4567C3.12333 20.0367 2.86333 19.6367 2.64667 19.0767C2.48333 18.6533 2.28667 18.02 2.23333 16.85C2.17667 15.5833 2.16333 15.2067 2.16333 12C2.16333 8.79333 2.17667 8.41667 2.23333 7.15C2.28667 5.98 2.48333 5.34333 2.64667 4.92333C2.86333 4.36333 3.12333 3.96333 3.54333 3.54333C3.96333 3.12333 4.36333 2.86333 4.92333 2.64667C5.34667 2.48333 5.98 2.28667 7.15 2.23333C8.41667 2.17667 8.79333 2.16333 12 2.16333C15.2067 2.16333 15.5833 2.17667 16.85 2.23333C18.02 2.28667 18.6567 2.48333 19.0767 2.64667C19.6367 2.86333 20.0367 3.12333 20.4567 3.54333C20.8767 3.96333 21.1367 4.36333 21.3533 4.92333C21.5167 5.34667 21.7133 5.98 21.7667 7.15C21.8233 8.41667 21.8367 8.79333 21.8367 12C21.8367 15.2067 21.8233 15.5833 21.7667 16.85ZM17.3333 12C17.3333 14.9467 14.9467 17.3333 12 17.3333C9.05333 17.3333 6.66667 14.9467 6.66667 12C6.66667 9.05333 9.05333 6.66667 12 6.66667C14.9467 6.66667 17.3333 9.05333 17.3333 12ZM20 5.33333C20 6.07 19.4033 6.66667 18.6667 6.66667C17.93 6.66667 17.3333 6.07 17.3333 5.33333C17.3333 4.59667 17.93 4 18.6667 4C19.4033 4 20 4.59667 20 5.33333Z" fill="#444444"/>
</svg>
