<svg width="24" height="24" viewBox="0 0 24 24" xmlns="http://www.w3.org/2000/svg">
    <title>Facebook</title>
    <path d="M12 0C18.6274 0 24 5.37258 24 12C24 18.1353 19.3955 23.1945 13.4538 23.9121V15.667H16.7L17.3734 12H13.4538V10.7031C13.4538 10.4609 13.4657 10.2373 13.4903 10.0315C13.6627 8.59058 14.46 8.01994 16.1817 8.01994C16.7929 8.01994 17.2848 8.03485 17.568 8.06466V4.74048C17.5009 4.72185 17.4218 4.70321 17.333 4.68487C16.7121 4.55647 15.6246 4.44235 14.9594 4.44235C14.4581 4.44235 13.9907 4.47193 13.5564 4.53167C12.5046 4.67636 11.6472 4.99797 10.9758 5.50476C10.5382 5.835 10.1795 6.24387 9.89738 6.73366C9.36101 7.66474 9.10107 8.88824 9.10107 10.4199V12H6.62657L6.62657 15.667H9.10107V23.6466C3.87434 22.3499 0 17.6277 0 12C0 5.37258 5.37258 0 12 0Z"/>
</svg>
