<svg width="24" height="24" viewBox="0 0 24 24" xmlns="http://www.w3.org/2000/svg">
    <title>Signal</title>
    <path d="M14.96 0.439754L14.8433 0.409754L14.57 1.50309L14.6767 1.52975C15.4867 1.75309 16.2667 2.06309 17.0033 2.45642L17.5067 1.45309C16.7 1.02309 15.8433 0.679754 14.9567 0.439754H14.96ZM13.7267 0.16642C12.78 0.00642048 11.8233 -0.0369129 10.8733 0.0297538L10.9467 1.15309C11.81 1.08975 12.6867 1.13309 13.55 1.27642L13.7267 0.163087V0.16642ZM18.5 2.04642L17.91 2.99642C18.6433 3.48309 19.32 4.05309 19.92 4.69642L20.71 3.91309C20.05 3.20642 19.3033 2.57642 18.5 2.04309V2.04642ZM9.73667 0.16642C8.79 0.32642 7.86667 0.599754 6.99333 0.979754L7.41667 2.01975C8.21333 1.67309 9.05333 1.42309 9.91667 1.27975L9.74 0.16642H9.73667ZM21.4633 4.79975L20.6067 5.50309C21.15 6.20642 21.61 6.97642 21.97 7.78309L22.9633 7.31309C22.5667 6.42309 22.06 5.57642 21.4633 4.79975ZM14.2567 3.16309C9.3 1.80309 4.25667 4.60975 3.01333 9.41642C2.29 12.2131 2.99333 15.2064 4.89 17.4864L4.17667 20.2464C4.12667 20.4398 4.18 20.6464 4.32 20.7898C4.39 20.8598 4.47333 20.9098 4.56667 20.9364C4.65667 20.9598 4.75333 20.9631 4.85 20.9364L8.16333 20.0198C8.67333 20.2598 9.20667 20.4598 9.75 20.6098C14.7067 21.9698 19.75 19.1664 20.9933 14.3564C22.2367 9.54642 19.2167 4.52642 14.26 3.16642L14.2567 3.16309ZM5.95667 1.48975C5.11 1.95975 4.32333 2.53309 3.62 3.19309L4.35667 4.02642C4.99333 3.42642 5.70667 2.90642 6.47333 2.48309L5.95333 1.48975H5.95667ZM23.39 8.41309L22.3567 8.77975C22.64 9.62975 22.8167 10.5064 22.88 11.3931L23.9733 11.3064C23.9 10.3264 23.7033 9.35309 23.39 8.41309ZM2.81 4.03642C2.16667 4.77642 1.62333 5.59975 1.19 6.47642L2.16667 6.98642C2.55667 6.19309 3.04667 5.45309 3.62667 4.78642L2.81 4.03309V4.03642ZM24 12.4931L22.9067 12.4598C22.8833 13.2431 22.7733 14.0298 22.5767 14.7931C22.55 14.8931 22.5233 14.9931 22.4933 15.0898L23.5433 15.4131C23.5767 15.3031 23.6067 15.1931 23.6333 15.0831C23.8533 14.2364 23.9767 13.3631 24 12.4931ZM0.723333 7.56309C0.586667 7.93309 0.47 8.30975 0.37 8.68975C0.223333 9.26309 0.116667 9.85309 0.0566667 10.4398L1.14667 10.5564C1.2 10.0264 1.29333 9.49975 1.42667 8.97975C1.51667 8.63642 1.62333 8.29309 1.74333 7.96309L0.72 7.56309H0.723333ZM22.1433 16.0964C21.8133 16.9164 21.3767 17.6931 20.8467 18.3998L21.7133 19.0898C22.3 18.3031 22.7867 17.4431 23.1533 16.5298L22.1433 16.0964ZM1.09333 11.6231H0C0 12.6098 0.126667 13.5964 0.37 14.5564L1.42667 14.2664C1.20667 13.3998 1.09333 12.5098 1.09 11.6198L1.09333 11.6231ZM20.1733 19.2098C19.58 19.8531 18.9067 20.4231 18.1667 20.9031L18.75 21.8564C19.5667 21.3264 20.31 20.6964 20.9667 19.9864L20.1733 19.2098ZM1.74333 15.2898L0.72 15.6864C1.03 16.5331 1.43333 17.3498 1.92667 18.1098L1.57667 20.3631L2.66 20.5398L3.04333 18.0664C3.06667 17.9231 3.03333 17.7764 2.95333 17.6564C2.45667 16.9164 2.05 16.1198 1.74667 15.2864L1.74333 15.2898ZM17.26 21.4331C16.49 21.8331 15.6667 22.1398 14.8167 22.3431L15.0667 23.4398C16 23.2164 16.9033 22.8764 17.7533 22.4364L17.2633 21.4298L17.26 21.4331ZM13.79 22.5398C12.9333 22.6598 12.0567 22.6764 11.1867 22.5931L11.0833 23.7164C12.0367 23.8098 12.9967 23.7898 13.9367 23.6598L13.79 22.5431V22.5398ZM8.2 21.8731C8.11333 21.8398 8.01333 21.8264 7.92 21.8431L7.32 21.9398L7.49333 23.0531L7.95 22.9764C8.60333 23.2231 9.28333 23.4131 9.95 23.5464L10.1533 22.4364C9.49667 22.3064 8.83333 22.1164 8.2 21.8698V21.8731ZM6.24 22.1164L3.53667 22.5564L3.70667 23.6698L6.41 23.2298L6.24 22.1164ZM2.48333 21.6564L1.40333 21.4798L1.11667 23.3498C1.09 23.5298 1.14667 23.7098 1.27 23.8364C1.34 23.9064 1.42333 23.9564 1.51667 23.9831C1.59 24.0031 1.66667 24.0098 1.74333 23.9964L2.63333 23.8498L2.46333 22.7364L2.31667 22.7598L2.48667 21.6598L2.48333 21.6564Z" fill="#444444"/>
</svg>
