<svg width="24" height="24" viewBox="0 0 24 24" xmlns="http://www.w3.org/2000/svg">
    <title>WhatsApp</title>
    <path d="M7.77333 6.45C7.57333 6.45 7.25 6.52333 6.97333 6.82333C6.7 7.12333 5.92333 7.84667 5.92333 9.32C5.92333 10.7933 6.99667 12.2167 7.14667 12.42C7.29667 12.62 9.22 15.74 12.2633 16.94C14.7933 17.9367 15.3067 17.74 15.8567 17.69C16.4067 17.64 17.63 16.9667 17.88 16.2667C18.13 15.5667 18.13 14.9667 18.0567 14.84C17.9833 14.7167 17.7833 14.64 17.4833 14.49C17.1833 14.34 15.7133 13.6167 15.4367 13.5167C15.1633 13.4167 14.96 13.3667 14.76 13.6667C14.56 13.9667 13.9867 14.64 13.8133 14.84C13.6367 15.04 13.4633 15.0667 13.1633 14.9167C12.8633 14.7667 11.9 14.45 10.7533 13.43C9.86333 12.6367 9.26333 11.6567 9.08667 11.3567C8.91333 11.0567 9.07 10.8933 9.22 10.7433C9.35333 10.61 9.51667 10.3933 9.66667 10.22C9.81667 10.0433 9.86667 9.92 9.96667 9.72C10.0667 9.52 10.0167 9.34667 9.94 9.19333C9.86667 9.04333 9.28333 7.56333 9.01667 6.97C8.79333 6.47333 8.55667 6.46 8.34 6.45333C8.16667 6.44667 7.96667 6.44667 7.76667 6.44667L7.77333 6.45ZM12.0133 2.4C14.5767 2.4 16.9867 3.4 18.7967 5.21C20.6067 7.02333 21.6033 9.43 21.6 11.99C21.6 17.2733 17.3 21.5733 12.01 21.5733C10.41 21.5733 8.82667 21.17 7.43 20.41L6.62 19.97L5.72667 20.18L3.36333 20.7367L3.94 18.5933L4.2 17.6333L3.70333 16.77C2.86667 15.32 2.42333 13.6633 2.42333 11.98C2.42333 6.69667 6.72667 2.4 12.01 2.4H12.0133ZM12.0133 0C5.40667 0 0.0266667 5.37333 0.0266667 11.98C0.0266667 14.0933 0.58 16.1533 1.62667 17.97L0 24L6.28 22.5167C8.03 23.4733 10.0033 23.9733 12.01 23.9733H12.0133C18.62 23.9733 23.9967 18.5967 24 11.9933C24 8.79 22.7567 5.78 20.4933 3.51333C18.23 1.25 15.2233 0 12.0167 0L12.0133 0Z" fill="#444444"/>
</svg>
