<svg width="24" height="24" viewBox="0 0 24 24" xmlns="http://www.w3.org/2000/svg">
    <title>TikTok</title>
    <path d="M18.86 10.47C18.73 10.4833 18.6 10.49 18.4667 10.49C16.9667 10.49 15.65 9.72 14.8833 8.55333V15.1467C14.8833 17.8367 12.7 20.02 10.01 20.02C7.32 20.02 5.13667 17.8367 5.13667 15.1467C5.13667 12.4567 7.32 10.2733 10.01 10.2733C10.1133 10.2733 10.21 10.2833 10.31 10.29V12.69C10.21 12.6767 10.1133 12.66 10.01 12.66C8.63667 12.66 7.52333 13.7733 7.52333 15.1467C7.52333 16.52 8.63667 17.6333 10.01 17.6333C11.3833 17.6333 12.5967 16.55 12.5967 15.1767C12.5967 15.1233 12.62 3.98 12.62 3.98H14.9133C15.13 6.03333 16.7867 7.65 18.8567 7.8V10.47H18.86ZM21.1433 0H2.85667C1.28333 0 0 1.28333 0 2.85667V21.1433C0 22.72 1.28333 24 2.85667 24H21.1433C22.72 24 24 22.7167 24 21.1433V2.85667C24 1.28 22.7167 0 21.1433 0Z" fill="#444444"/>
</svg>
