<svg width="24" height="24" viewBox="0 0 24 24" xmlns="http://www.w3.org/2000/svg">
    <title>Threema</title>
    <path d="M18.3067 20.48C19.2767 20.48 20.06 21.2667 20.06 22.24C20.06 23.2133 19.2767 24 18.3067 24C17.3367 24 16.56 23.2133 16.56 22.24C16.56 21.2667 17.3367 20.48 18.3067 20.48ZM5.68668 20.48C6.65668 20.48 7.44002 21.2667 7.44002 22.24C7.44002 23.2133 6.65668 24 5.68668 24C4.71668 24 3.94002 23.2133 3.94002 22.24C3.93335 21.2667 4.71668 20.48 5.68668 20.48ZM11.9967 20.48C12.9667 20.48 13.75 21.2667 13.75 22.24C13.75 23.2133 12.9667 24 11.9967 24C11.0267 24 10.25 23.2133 10.25 22.24C10.2433 21.2667 11.0267 20.48 11.9967 20.48ZM11.9967 0C17.68 0 22.28 4.06667 22.28 9.08C22.28 14.0933 17.6767 18.1567 11.9967 18.1567C10.3833 18.1567 8.85335 17.83 7.49002 17.2433L2.34002 18.5367L3.44002 14.12C2.35335 12.68 1.71668 10.9433 1.71668 9.08C1.71002 4.06667 6.31335 0 11.9967 0ZM11.9967 4.24C10.3833 4.24 9.08002 5.54667 9.08002 7.16333V8.33H8.97002C8.71002 8.33 8.50335 8.53667 8.50335 8.79667V12.9233C8.50335 13.1833 8.71002 13.3933 8.97002 13.3933H15.0367C15.2967 13.3933 15.5033 13.1867 15.5033 12.9233V8.79667C15.5033 8.53667 15.2967 8.33 15.0367 8.33H14.9233V7.16333C14.91 5.54667 13.6067 4.24 11.9933 4.24M11.9933 5.40667C12.9633 5.40667 13.7467 6.19333 13.7467 7.16V8.32667H10.24V7.16C10.24 6.19333 11.0233 5.40667 11.9933 5.40667Z" fill="#444444"/>
</svg>
