<svg width="24" height="24" viewBox="0 0 24 24" xmlns="http://www.w3.org/2000/svg">
    <title>Jabber</title>
    <path d="M10.0835 0.0168855C9.88206 0.0433603 9.6791 0.056312 9.47583 0.0692843C9.23988 0.0843415 9.0035 0.0994265 8.76857 0.135719C7.93082 0.265108 7.12844 0.525394 6.34377 0.839367C6.05805 0.953676 5.77614 1.08105 5.49927 1.21507C5.46731 1.23053 5.43015 1.24504 5.39161 1.26009C5.3059 1.29355 5.21339 1.32967 5.15624 1.38487C5.12134 1.41864 5.11759 1.48911 5.11464 1.54433C5.11395 1.55732 5.1133 1.56948 5.11231 1.58011C5.10454 1.66383 5.09533 1.74749 5.08613 1.83114C5.07808 1.9043 5.07003 1.97745 5.06294 2.05062C5.00434 2.65584 4.96302 3.27936 5.04968 3.88428C5.07773 4.07972 5.13846 4.43421 5.37864 4.47171C5.71847 4.5249 5.98852 4.1444 6.1707 3.8877C6.18653 3.8654 6.2017 3.84403 6.21619 3.82396C6.63954 3.23764 7.12121 2.69183 7.81551 2.42974C8.63286 2.12119 9.56865 2.04851 10.4334 1.98919C12.8594 1.8229 15.5105 2.26606 17.2976 4.05318C17.5518 4.30734 17.7923 4.57707 17.9969 4.87355C18.7971 6.03233 19.2203 7.34994 19.424 8.73391C19.5198 9.38367 19.5853 10.0412 19.4371 10.6882C19.1799 11.8108 18.5056 12.7879 17.7308 13.6197C17.2005 14.1891 16.6037 14.7037 15.9826 15.1715C15.8473 15.2734 15.7056 15.3692 15.5637 15.4652C15.342 15.6152 15.1198 15.7654 14.9209 15.9395C14.5454 16.2682 14.2331 16.6796 13.9957 17.1183C13.3569 18.2994 13.1856 19.7205 13.3735 21.0389L13.3879 21.1409C13.4212 21.3774 13.4545 21.6142 13.508 21.8473C13.5132 21.87 13.5172 21.8973 13.5215 21.9263C13.5321 21.9992 13.5442 22.0826 13.5811 22.1292C13.6776 22.251 13.941 22.3181 14.0885 22.3252C14.2423 22.3326 14.3447 22.2144 14.3824 22.0765C14.4469 21.8401 14.4083 21.5783 14.3709 21.3406C14.2943 20.8536 14.2241 20.3632 14.2459 19.8688C14.2859 18.9561 14.6387 18.1055 15.2713 17.444C15.6697 17.0274 16.1546 16.7199 16.6398 16.4124C16.938 16.2233 17.2363 16.0342 17.5147 15.8197C18.9881 14.6838 20.3081 13.1513 20.815 11.3277C20.9962 10.6756 21.0562 9.98447 20.9735 9.3131C20.8691 8.46498 20.5592 7.61787 20.267 6.81903L20.2658 6.8159C19.3742 4.37811 17.8446 2.05977 15.4156 0.944526C14.4515 0.501969 13.4435 0.300496 12.3996 0.155122C11.9101 0.0869587 11.4207 0.0451351 10.9279 0.02352C10.8709 0.0210309 10.8129 0.0177456 10.7543 0.0144262C10.5313 0.00179088 10.2996 -0.0115385 10.0835 0.0168855Z" fill="#444444"/>
    <path d="M10.3343 10.7122C10.5376 11.0057 10.6022 11.3876 10.6022 11.7376C10.7178 11.6491 10.8144 11.5293 10.9094 11.4115C10.956 11.3536 11.0023 11.2962 11.0502 11.2433C11.2833 10.9855 11.5547 10.7588 11.8685 10.607C11.9856 10.5503 12.1143 10.5086 12.2424 10.4862C12.3456 10.4682 12.4643 10.4581 12.5682 10.4767C13.12 10.576 13.2918 11.3002 13.292 11.774C13.2923 12.3538 13.1554 12.9298 12.8715 13.4388C12.7155 13.7184 12.5179 13.9739 12.3209 14.2286C12.2204 14.3586 12.12 14.4884 12.0254 14.6211C11.9566 14.7176 11.8899 14.8156 11.8233 14.9137C11.7497 15.0219 11.676 15.1302 11.5996 15.2363C11.5179 15.3497 11.4208 15.4726 11.2774 15.5056C11.0859 15.5496 10.9403 15.4362 10.9046 15.2484C10.8606 15.0162 10.9208 14.7907 11.0273 14.5849C11.1292 14.3879 11.2758 14.2149 11.4217 14.0427C11.5125 13.9355 11.6031 13.8285 11.6826 13.7162C11.9234 13.376 12.0937 12.9991 12.2598 12.6184C12.283 12.5654 12.3083 12.5141 12.3332 12.4638C12.4461 12.2351 12.5487 12.0275 12.3868 11.7739C12.3562 11.7259 12.3217 11.6807 12.2789 11.6428C12.1108 11.4942 11.8402 11.6357 11.6757 11.723C11.3566 11.8926 11.0687 12.1314 10.79 12.3626L10.7106 12.4284C10.6866 12.4482 10.657 12.4767 10.6243 12.5082C10.5289 12.6001 10.4063 12.7181 10.313 12.7267C10.269 12.7306 10.2446 12.6756 10.2274 12.6366C10.2244 12.6299 10.2217 12.6237 10.2191 12.6183C10.1577 12.4913 10.1211 12.3564 10.0878 12.2202C10.0474 12.0548 10.0303 11.8819 10.0132 11.7088C9.98883 11.4625 9.96444 11.2158 9.87275 10.9896C9.77634 10.7518 9.53063 10.6235 9.28713 10.7283C9.0174 10.8443 8.86921 11.1447 8.7925 11.4119C8.66565 11.8539 8.7193 12.2884 8.77346 12.7271C8.79665 12.9149 8.81994 13.1035 8.82919 13.2938C8.83068 13.3244 8.83323 13.3597 8.83601 13.3983C8.85785 13.7014 8.89445 14.2093 8.55121 14.267C8.42224 14.2887 8.21191 14.2567 8.12576 14.1463C8.09013 14.1008 8.07498 14.0307 8.06115 13.9666C8.05581 13.9419 8.05067 13.9181 8.04462 13.897C7.9845 13.6866 7.94027 13.4719 7.89744 13.2576C7.76344 12.5874 7.67557 11.8259 7.86719 11.1585C7.9637 10.8224 8.13492 10.4951 8.44276 10.3076C9.0518 9.93691 9.92676 10.124 10.3343 10.7122Z" fill="#444444"/>
    <path d="M5.75972 16.6718C5.67225 16.2436 5.80988 15.8641 6.28331 15.7963C6.70109 15.7364 6.92782 16.0246 7.15815 16.3171C7.17846 16.3428 7.1988 16.3687 7.21929 16.3943C7.6325 16.9108 8.07024 17.4218 8.61141 17.8092C9.28088 18.2884 10.1552 18.4732 10.9638 18.3433C11.2212 18.302 11.4714 18.23 11.7213 18.1582L11.7601 18.147C11.7831 18.1404 11.8068 18.1332 11.8309 18.1259C11.9631 18.0857 12.1096 18.0412 12.2426 18.063C12.2976 18.072 12.3622 18.088 12.4115 18.1139C12.7718 18.3024 12.4951 18.7428 12.2306 18.8651C11.7373 19.0932 11.1516 19.182 10.6141 19.2056C9.23643 19.2659 7.8235 18.8101 6.72957 17.9668C6.30261 17.6376 5.87171 17.2197 5.75972 16.6718Z" fill="#444444"/>
    <path d="M5.66813 18.4744C5.64295 18.4777 5.61701 18.4801 5.59077 18.4826C5.49147 18.4919 5.38799 18.5016 5.3064 18.5614C5.09125 18.7194 5.32821 19.0371 5.44142 19.181C5.76966 19.5982 6.20186 19.9444 6.63317 20.2496C7.83556 21.1003 9.19762 21.591 10.6624 21.6914C11.0836 21.7203 11.5125 21.6903 11.9291 21.6209C11.9654 21.6149 12.0038 21.6096 12.0431 21.6042C12.1689 21.587 12.3044 21.5684 12.4116 21.5183C12.81 21.332 12.6947 20.5795 12.3393 20.4122C12.2256 20.3588 12.0616 20.3961 11.9181 20.4289C11.8656 20.4408 11.8158 20.4522 11.7722 20.4582C11.3873 20.5119 11.0012 20.5174 10.6141 20.5079C9.59936 20.4831 8.5184 20.1705 7.63429 19.6773C7.28674 19.4833 6.96755 19.2472 6.66915 18.9845C6.61574 18.9375 6.5619 18.8817 6.50651 18.8242C6.37372 18.6865 6.23201 18.5396 6.06594 18.4826C5.95636 18.445 5.78213 18.4594 5.66813 18.4744Z" fill="#444444"/>
    <path d="M5.49582 20.9664C5.60862 20.8392 5.73791 20.7497 5.90941 20.7305C6.08697 20.7107 6.25175 20.8505 6.36776 20.9663C6.51901 21.1173 6.64477 21.2878 6.77052 21.4584C6.86804 21.5906 6.96555 21.7228 7.07493 21.8459C7.13031 21.9082 7.20418 21.9563 7.27618 22.0031C7.30379 22.021 7.33112 22.0388 7.35703 22.0572C7.66989 22.2785 8.02498 22.4369 8.38249 22.5702C8.79198 22.7229 9.21988 22.8298 9.64361 22.9358L9.67326 22.9432C10.1807 23.0701 10.6547 23.1861 11.1812 23.1222C11.5809 23.0739 11.967 22.9599 12.3394 22.8097C12.3794 22.7935 12.4229 22.7711 12.4684 22.7477C12.602 22.6789 12.7525 22.6014 12.8823 22.6485C13.1758 22.7552 13.0659 23.0074 12.9059 23.174C12.6218 23.4697 12.2355 23.6884 11.8447 23.8081C10.53 24.2109 9.04522 23.9225 7.77927 23.4719C7.21798 23.2721 6.66705 23.035 6.16277 22.7151C5.70966 22.4275 5.05356 21.8528 5.29967 21.2439C5.34167 21.1399 5.40948 21.0636 5.48207 20.9819C5.48664 20.9768 5.49122 20.9716 5.49582 20.9664Z" fill="#444444"/>
</svg>
