<svg width="18" height="19" viewBox="0 0 18 19" fill="none" xmlns="http://www.w3.org/2000/svg">
	<title>Gefällt mir</title>
	<path id="Fill" fill-rule="evenodd" clip-rule="evenodd"
		d="M9.97892 1.34911C11.0035 0.104947 13.0015 1.13182 12.5862 2.68917L11.7262 5.91402H15.4874C16.6159 5.91402 17.4493 6.96635 17.1909 8.06484L15.6615 14.5648C15.4755 15.3553 14.7701 15.914 13.958 15.914H7.75H7.57295L7.41459 15.8348L5.75 15.0025V14.164V7.664V6.48423L9.97892 1.34911ZM2.24998 5.91401L3.24998 5.914C3.94034 5.91399 4.5 6.47364 4.5 7.164V14.664C4.5 15.3543 3.94037 15.914 3.25002 15.914L2.25002 15.914C1.55966 15.914 1 15.3544 1 14.664V7.16401C1 6.47367 1.55963 5.91402 2.24998 5.91401Z"
		fill="#444444" />
</svg>