<svg width="18" height="18" viewBox="0 0 18 18" fill="none" xmlns="http://www.w3.org/2000/svg">
	<title>Gefällt mir</title>
	<path id="Fill" fill-rule="evenodd" clip-rule="evenodd"
		d="M9.97892 0.554193C11.0035 -0.689975 13.0015 0.3369 12.5862 1.89425L11.7262 5.1191H15.4874C16.6159 5.1191 17.4493 6.17143 17.1909 7.26992L15.6615 13.7699C15.4755 14.5604 14.7701 15.1191 13.958 15.1191H7.75H7.57295L7.41459 15.0399L6.33056 14.4979C6.11389 14.8694 5.7111 15.1191 5.25 15.1191H2.25C1.55964 15.1191 1 14.5595 1 13.8691V6.3691C1 5.67874 1.55964 5.1191 2.25 5.1191H5.25C5.53522 5.1191 5.79813 5.21463 6.00848 5.37544L9.97892 0.554193ZM6.5 7.13817V12.9056L7.92705 13.6191H13.958C14.074 13.6191 14.1748 13.5393 14.2013 13.4264L15.7308 6.92636C15.7677 6.76943 15.6486 6.6191 15.4874 6.6191H10.75H9.77379L10.0253 5.67585L11.1368 1.50775L6.5 7.13817ZM2.5 6.6191V13.6191H5V13.3691V6.8691V6.6191H2.5Z"
		fill="#444444" />
</svg>