<svg width="18" height="19" viewBox="0 0 18 19" fill="#444444" xmlns="http://www.w3.org/2000/svg">
	<title>Gefällt mir nicht</title>
	<path id="Fill" fill-rule="evenodd" clip-rule="evenodd"
		d="M8.25924 18.2407C7.23463 19.4849 5.2367 18.458 5.65199 16.9007L6.51195 13.6758H2.75076C1.62228 13.6758 0.788815 12.6235 1.04728 11.525L2.57669 5.025C2.76269 4.2345 3.46808 3.67582 4.28017 3.67582H10.4882H10.6652L10.8236 3.755L11.9076 4.29702C12.1243 3.92549 12.5271 3.67582 12.9882 3.67582H15.9882C16.6785 3.67582 17.2382 4.23547 17.2382 4.92582V12.4258C17.2382 13.1162 16.6785 13.6758 15.9882 13.6758H12.9882C12.7029 13.6758 12.44 13.5803 12.2297 13.4195L8.25924 18.2407ZM11.7382 11.6567V5.88935L10.3111 5.17582H4.28017C4.16416 5.17582 4.06339 5.25563 4.03682 5.36856L2.50741 11.8686C2.47048 12.0255 2.58955 12.1758 2.75076 12.1758H7.48816H8.46437L8.21284 13.1191L7.10134 17.2872L11.7382 11.6567ZM15.7382 12.1758V5.17582H13.2382V5.42582V11.9258V12.1758H15.7382Z"
		fill="#444444" />
</svg>