<svg width="18" height="19" viewBox="0 0 18 19" fill="none" xmlns="http://www.w3.org/2000/svg">
	<title>Send</title>
	<path id="Stroke" fill-rule="evenodd" clip-rule="evenodd"
		d="M16.5303 2.26461C16.7353 2.46956 16.8038 2.77425 16.7063 3.0472L11.7063 17.0472C11.6053 17.3301 11.3451 17.5255 11.0452 17.5436C10.7453 17.5617 10.4635 17.3991 10.3292 17.1304L7.44099 11.354L1.6646 8.46576C1.39587 8.3314 1.23326 8.04964 1.25137 7.74974C1.26948 7.44984 1.46481 7.18969 1.74775 7.08864L15.7478 2.08864C16.0207 1.99115 16.3254 2.05967 16.5303 2.26461ZM8.91258 10.943L10.8848 14.8875L14.1719 5.6837L8.91258 10.943ZM13.1113 4.62304L7.85192 9.88237L3.90742 7.91012L13.1113 4.62304Z"
		fill="#444444" />
</svg>