<svg width="18" height="19" viewBox="0 0 18 19" fill="none" xmlns="http://www.w3.org/2000/svg">
	<title>Gefällt mir nicht</title>
	<path id="Fill" fill-rule="evenodd" clip-rule="evenodd"
		d="M8.25936 18.2407C7.23475 19.4849 5.23682 18.458 5.65211 16.9007L6.51207 13.6758H2.75088C1.6224 13.6758 0.788937 12.6235 1.04741 11.525L2.57682 5.025C2.76282 4.2345 3.4682 3.67582 4.2803 3.67582H10.4883H10.6653L10.8237 3.755L12.4883 4.5873V5.42584V11.9258V13.1056L8.25936 18.2407ZM15.9883 13.6758L14.9883 13.6758C14.2979 13.6759 13.7383 13.1162 13.7383 12.4258V4.92585C13.7383 4.2355 14.2979 3.67586 14.9883 3.67585L15.9883 3.67583C16.6786 3.67582 17.2383 4.23547 17.2383 4.92583V12.4258C17.2383 13.1162 16.6786 13.6758 15.9883 13.6758Z"
		fill="#444444" />
</svg>