<svg width="18" height="18" viewBox="0 0 18 18" fill="none" xmlns="http://www.w3.org/2000/svg">
    <title>Videokamera</title>
    <path d="M2 4.75H10C10.1381 4.75 10.25 4.86193 10.25 5V13C10.25 13.1381 10.1381 13.25 10 13.25H2C1.86193 13.25 1.75 13.1381 1.75 13V5C1.75 4.86193 1.86193 4.75 2 4.75Z" stroke="#444444" stroke-width="1.5"/>
    <path d="M12.8882 6.89443L15.8882 5.39443C16.0544 5.31131 16.25 5.43219 16.25 5.61803V12.382C16.25 12.5678 16.0544 12.6887 15.8882 12.6056L12.8882 11.1056C12.8035 11.0632 12.75 10.9767 12.75 10.882V7.11803C12.75 7.02334 12.8035 6.93678 12.8882 6.89443Z" stroke="#444444" stroke-width="1.5"/>
</svg>
